{
  "accessors": [
    {
      "bufferView": 1,
      "componentType": 5126,
      "count": 65532,
      "max": [
        26.778182983398438,
        582.6668701171875,
        60.87806701660156
      ],
      "min": [
        -25.900920867919922,
        457.1481018066406,
        -87.25725555419922
      ],
      "type": "VEC3"
    },
    {
      "bufferView": 1,
      "byteOffset": 786384,
      "componentType": 5126,
      "count": 65532,
      "max": [
        0.9999945163726807,
        0.9999973177909851,
        0.9999964833259583
      ],
      "min": [
        -0.9999983906745911,
        -1.0,
        -0.9999993443489075
      ],
      "type": "VEC3"
    },
    {
      "bufferView": 0,
      "componentType": 5125,
      "count": 308394,
      "type": "SCALAR"
    },
    {
      "bufferView": 1,
      "byteOffset": 1572768,
      "componentType": 5126,
      "count": 65532,
      "max": [
        26.82259750366211,
        583.1264038085938,
        67.14860534667969
      ],
      "min": [
        -27.051055908203125,
        457.2934265136719,
        -87.60891723632813
      ],
      "type": "VEC3"
    },
    {
      "bufferView": 1,
      "byteOffset": 2359152,
      "componentType": 5126,
      "count": 65532,
      "max": [
        0.9999966025352478,
        0.9999996423721313,
        0.9999980330467224
      ],
      "min": [
        -0.9999935030937195,
        -0.9999977946281433,
        -0.9997140169143677
      ],
      "type": "VEC3"
    },
    {
      "bufferView": 0,
      "byteOffset": 1233576,
      "componentType": 5125,
      "count": 309861,
      "type": "SCALAR"
    },
    {
      "bufferView": 1,
      "byteOffset": 3145536,
      "componentType": 5126,
      "count": 65532,
      "max": [
        24.94019317626953,
        583.11669921875,
        67.0142593383789
      ],
      "min": [
        -27.274770736694336,
        456.3983459472656,
        -87.62360382080078
      ],
      "type": "VEC3"
    },
    {
      "bufferView": 1,
      "byteOffset": 3931920,
      "componentType": 5126,
      "count": 65532,
      "max": [
        0.9999966025352478,
        0.9999993443489075,
        0.9999769330024719
      ],
      "min": [
        -0.9999982714653015,
        -0.9999781847000122,
        -0.9999985694885254
      ],
      "type": "VEC3"
    },
    {
      "bufferView": 0,
      "byteOffset": 2473020,
      "componentType": 5125,
      "count": 306405,
      "type": "SCALAR"
    },
    {
      "bufferView": 1,
      "byteOffset": 4718304,
      "componentType": 5126,
      "count": 65532,
      "max": [
        26.819488525390625,
        582.7086181640625,
        66.92789459228516
      ],
      "min": [
        -26.80436134338379,
        456.7893371582031,
        -84.47058868408203
      ],
      "type": "VEC3"
    },
    {
      "bufferView": 1,
      "byteOffset": 5504688,
      "componentType": 5126,
      "count": 65532,
      "max": [
        0.9999979734420776,
        0.9999998211860657,
        0.999980628490448
      ],
      "min": [
        -0.9999996423721313,
        -0.9999582171440125,
        -0.9999821782112122
      ],
      "type": "VEC3"
    },
    {
      "bufferView": 0,
      "byteOffset": 3698640,
      "componentType": 5125,
      "count": 306612,
      "type": "SCALAR"
    },
    {
      "bufferView": 1,
      "byteOffset": 6291072,
      "componentType": 5126,
      "count": 65532,
      "max": [
        26.726415634155273,
        582.22509765625,
        62.38643264770508
      ],
      "min": [
        -25.701814651489258,
        456.39324951171875,
        -87.56454467773438
      ],
      "type": "VEC3"
    },
    {
      "bufferView": 1,
      "byteOffset": 7077456,
      "componentType": 5126,
      "count": 65532,
      "max": [
        0.9999979734420776,
        0.9999920129776001,
        0.9999936819076538
      ],
      "min": [
        -0.9999986886978149,
        -0.9999566674232483,
        -0.9999942779541016
      ],
      "type": "VEC3"
    },
    {
      "bufferView": 0,
      "byteOffset": 4925088,
      "componentType": 5125,
      "count": 307293,
      "type": "SCALAR"
    },
    {
      "bufferView": 1,
      "byteOffset": 7863840,
      "componentType": 5126,
      "count": 65533,
      "max": [
        26.82259750366211,
        583.11669921875,
        63.49382019042969
      ],
      "min": [
        -27.057823181152344,
        456.39324951171875,
        -81.5685806274414
      ],
      "type": "VEC3"
    },
    {
      "bufferView": 1,
      "byteOffset": 8650236,
      "componentType": 5126,
      "count": 65533,
      "max": [
        0.9999977946281433,
        0.9999989867210388,
        0.9999829530715942
      ],
      "min": [
        -1.0,
        -0.9999775290489197,
        -0.9999809861183167
      ],
      "type": "VEC3"
    },
    {
      "bufferView": 0,
      "byteOffset": 6154260,
      "componentType": 5125,
      "count": 305727,
      "type": "SCALAR"
    },
    {
      "bufferView": 1,
      "byteOffset": 9436632,
      "componentType": 5126,
      "count": 65532,
      "max": [
        26.219541549682617,
        583.1098022460938,
        66.13932037353516
      ],
      "min": [
        -27.000608444213867,
        456.4789123535156,
        -87.56935119628906
      ],
      "type": "VEC3"
    },
    {
      "bufferView": 1,
      "byteOffset": 10223016,
      "componentType": 5126,
      "count": 65532,
      "max": [
        0.9999949932098389,
        0.9999992847442627,
        0.9999991059303284
      ],
      "min": [
        -0.9999992251396179,
        -0.9999998211860657,
        -0.9999986886978149
      ],
      "type": "VEC3"
    },
    {
      "bufferView": 0,
      "byteOffset": 7377168,
      "componentType": 5125,
      "count": 307539,
      "type": "SCALAR"
    },
    {
      "bufferView": 1,
      "byteOffset": 11009400,
      "componentType": 5126,
      "count": 65532,
      "max": [
        26.05841827392578,
        582.996337890625,
        66.8418960571289
      ],
      "min": [
        -27.126300811767578,
        456.7166442871094,
        -87.3077163696289
      ],
      "type": "VEC3"
    },
    {
      "bufferView": 1,
      "byteOffset": 11795784,
      "componentType": 5126,
      "count": 65532,
      "max": [
        0.9999997615814209,
        0.9999991059303284,
        0.9999477863311768
      ],
      "min": [
        -0.9999977350234985,
        -0.9999675154685974,
        -0.9999780654907227
      ],
      "type": "VEC3"
    },
    {
      "bufferView": 0,
      "byteOffset": 8607324,
      "componentType": 5125,
      "count": 310089,
      "type": "SCALAR"
    },
    {
      "bufferView": 1,
      "byteOffset": 12582168,
      "componentType": 5126,
      "count": 65532,
      "max": [
        26.622726440429688,
        582.9122924804688,
        66.45497131347656
      ],
      "min": [
        -27.248409271240234,
        457.0643005371094,
        -85.5712890625
      ],
      "type": "VEC3"
    },
    {
      "bufferView": 1,
      "byteOffset": 13368552,
      "componentType": 5126,
      "count": 65532,
      "max": [
        0.9999957084655762,
        0.9999980330467224,
        0.9999936819076538
      ],
      "min": [
        -0.999998152256012,
        -0.999992311000824,
        -0.9999909996986389
      ],
      "type": "VEC3"
    },
    {
      "bufferView": 0,
      "byteOffset": 9847680,
      "componentType": 5125,
      "count": 303621,
      "type": "SCALAR"
    },
    {
      "bufferView": 1,
      "byteOffset": 14154936,
      "componentType": 5126,
      "count": 65532,
      "max": [
        26.8138427734375,
        583.0337524414063,
        67.10138702392578
      ],
      "min": [
        -26.91553497314453,
        456.4964904785156,
        -86.76318359375
      ],
      "type": "VEC3"
    },
    {
      "bufferView": 1,
      "byteOffset": 14941320,
      "componentType": 5126,
      "count": 65532,
      "max": [
        0.9999999403953552,
        0.9999974370002747,
        0.9999970197677612
      ],
      "min": [
        -0.9999977350234985,
        -0.9999872446060181,
        -0.9999988675117493
      ],
      "type": "VEC3"
    },
    {
      "bufferView": 0,
      "byteOffset": 11062164,
      "componentType": 5125,
      "count": 289278,
      "type": "SCALAR"
    },
    {
      "bufferView": 1,
      "byteOffset": 15727704,
      "componentType": 5126,
      "count": 65532,
      "max": [
        26.756887435913086,
        583.111083984375,
        65.36160278320313
      ],
      "min": [
        -27.155881881713867,
        456.5476379394531,
        -87.57279205322266
      ],
      "type": "VEC3"
    },
    {
      "bufferView": 1,
      "byteOffset": 16514088,
      "componentType": 5126,
      "count": 65532,
      "max": [
        0.9999976754188538,
        0.9999995827674866,
        0.9998435974121094
      ],
      "min": [
        -0.9999958872795105,
        -0.9999983310699463,
        -0.9999942779541016
      ],
      "type": "VEC3"
    },
    {
      "bufferView": 0,
      "byteOffset": 12219276,
      "componentType": 5125,
      "count": 254100,
      "type": "SCALAR"
    },
    {
      "bufferView": 1,
      "byteOffset": 17300472,
      "componentType": 5126,
      "count": 65532,
      "max": [
        26.818788528442383,
        583.1136474609375,
        67.00767517089844
      ],
      "min": [
        -27.239179611206055,
        456.5889587402344,
        -87.54116821289063
      ],
      "type": "VEC3"
    },
    {
      "bufferView": 1,
      "byteOffset": 18086856,
      "componentType": 5126,
      "count": 65532,
      "max": [
        0.9999967813491821,
        0.9999996423721313,
        0.9999377727508545
      ],
      "min": [
        -0.9999983310699463,
        -0.9999986290931702,
        -0.9999973773956299
      ],
      "type": "VEC3"
    },
    {
      "bufferView": 0,
      "byteOffset": 13235676,
      "componentType": 5125,
      "count": 195663,
      "type": "SCALAR"
    },
    {
      "bufferView": 1,
      "byteOffset": 18873240,
      "componentType": 5126,
      "count": 52968,
      "max": [
        26.81812286376953,
        583.0368041992188,
        66.96331787109375
      ],
      "min": [
        -27.225507736206055,
        456.4096374511719,
        -87.57499694824219
      ],
      "type": "VEC3"
    },
    {
      "bufferView": 1,
      "byteOffset": 19508856,
      "componentType": 5126,
      "count": 52968,
      "max": [
        0.9999985694885254,
        0.9999964833259583,
        0.9999097585678101
      ],
      "min": [
        -0.9999992251396179,
        -0.999976396560669,
        -0.999971866607666
      ],
      "type": "VEC3"
    },
    {
      "bufferView": 0,
      "byteOffset": 14018328,
      "componentType": 5125,
      "count": 93048,
      "type": "SCALAR"
    }
  ],
  "asset": {
    "extras": {
      "author": "Thunk3D scanner (https://sketchfab.com/Diana123456)",
      "license": "CC-BY-4.0 (http://creativecommons.org/licenses/by/4.0/)",
      "source": "https://sketchfab.com/3d-models/dinosaur-trex-robot-scan-with-thunk3d-fishers-cbb436d22b8f47748974c718d8030977",
      "title": "Dinosaur-trex-robot-scan-with-thunk3d-fishers"
    },
    "generator": "Sketchfab-14.21.0",
    "version": "2.0"
  },
  "bufferViews": [
    {
      "buffer": 0,
      "byteLength": 14390520,
      "name": "floatBufferViews",
      "target": 34963
    },
    {
      "buffer": 0,
      "byteLength": 20144472,
      "byteOffset": 14390520,
      "byteStride": 12,
      "name": "floatBufferViews",
      "target": 34962
    }
  ],
  "buffers": [
    {
      "byteLength": 34534992,
      "uri": "scene.bin"
    }
  ],
  "materials": [
    {
      "doubleSided": true,
      "name": "material_0",
      "pbrMetallicRoughness": {
        "baseColorFactor": [
          0.8680952156188858,
          0.713436369993556,
          0.2695988221094605,
          1.0
        ],
        "metallicFactor": 0.9971372296145077,
        "roughnessFactor": 0.3218390804597701
      }
    }
  ],
  "meshes": [
    {
      "name": "Object_0",
      "primitives": [
        {
          "attributes": {
            "NORMAL": 1,
            "POSITION": 0
          },
          "indices": 2,
          "material": 0,
          "mode": 4
        }
      ]
    },
    {
      "name": "Object_1",
      "primitives": [
        {
          "attributes": {
            "NORMAL": 4,
            "POSITION": 3
          },
          "indices": 5,
          "material": 0,
          "mode": 4
        }
      ]
    },
    {
      "name": "Object_2",
      "primitives": [
        {
          "attributes": {
            "NORMAL": 7,
            "POSITION": 6
          },
          "indices": 8,
          "material": 0,
          "mode": 4
        }
      ]
    },
    {
      "name": "Object_3",
      "primitives": [
        {
          "attributes": {
            "NORMAL": 10,
            "POSITION": 9
          },
          "indices": 11,
          "material": 0,
          "mode": 4
        }
      ]
    },
    {
      "name": "Object_4",
      "primitives": [
        {
          "attributes": {
            "NORMAL": 13,
            "POSITION": 12
          },
          "indices": 14,
          "material": 0,
          "mode": 4
        }
      ]
    },
    {
      "name": "Object_5",
      "primitives": [
        {
          "attributes": {
            "NORMAL": 16,
            "POSITION": 15
          },
          "indices": 17,
          "material": 0,
          "mode": 4
        }
      ]
    },
    {
      "name": "Object_6",
      "primitives": [
        {
          "attributes": {
            "NORMAL": 19,
            "POSITION": 18
          },
          "indices": 20,
          "material": 0,
          "mode": 4
        }
      ]
    },
    {
      "name": "Object_7",
      "primitives": [
        {
          "attributes": {
            "NORMAL": 22,
            "POSITION": 21
          },
          "indices": 23,
          "material": 0,
          "mode": 4
        }
      ]
    },
    {
      "name": "Object_8",
      "primitives": [
        {
          "attributes": {
            "NORMAL": 25,
            "POSITION": 24
          },
          "indices": 26,
          "material": 0,
          "mode": 4
        }
      ]
    },
    {
      "name": "Object_9",
      "primitives": [
        {
          "attributes": {
            "NORMAL": 28,
            "POSITION": 27
          },
          "indices": 29,
          "material": 0,
          "mode": 4
        }
      ]
    },
    {
      "name": "Object_10",
      "primitives": [
        {
          "attributes": {
            "NORMAL": 31,
            "POSITION": 30
          },
          "indices": 32,
          "material": 0,
          "mode": 4
        }
      ]
    },
    {
      "name": "Object_11",
      "primitives": [
        {
          "attributes": {
            "NORMAL": 34,
            "POSITION": 33
          },
          "indices": 35,
          "material": 0,
          "mode": 4
        }
      ]
    },
    {
      "name": "Object_12",
      "primitives": [
        {
          "attributes": {
            "NORMAL": 37,
            "POSITION": 36
          },
          "indices": 38,
          "material": 0,
          "mode": 4
        }
      ]
    }
  ],
  "nodes": [
    {
      "children": [
        1
      ],
      "matrix": [
        -0.8583352565765381,
        0.015502502210438137,
        0.512855052947998,
        0.0,
        -0.006012230180203915,
        -0.999778687953949,
        0.02015883848071076,
        0.0,
        0.5130540728569031,
        0.014219638891517925,
        0.8582385182380676,
        0.0,
        0.0,
        0.0,
        0.0,
        1.0
      ],
      "name": "Sketchfab_model"
    },
    {
      "children": [
        2,
        3,
        4,
        5,
        6,
        7,
        8,
        9,
        10,
        11,
        12,
        13,
        14
      ],
      "name": "default.OBJ.cleaner.materialmerger.gles"
    },
    {
      "mesh": 0,
      "name": "Object_2"
    },
    {
      "mesh": 1,
      "name": "Object_3"
    },
    {
      "mesh": 2,
      "name": "Object_4"
    },
    {
      "mesh": 3,
      "name": "Object_5"
    },
    {
      "mesh": 4,
      "name": "Object_6"
    },
    {
      "mesh": 5,
      "name": "Object_7"
    },
    {
      "mesh": 6,
      "name": "Object_8"
    },
    {
      "mesh": 7,
      "name": "Object_9"
    },
    {
      "mesh": 8,
      "name": "Object_10"
    },
    {
      "mesh": 9,
      "name": "Object_11"
    },
    {
      "mesh": 10,
      "name": "Object_12"
    },
    {
      "mesh": 11,
      "name": "Object_13"
    },
    {
      "mesh": 12,
      "name": "Object_14"
    }
  ],
  "scene": 0,
  "scenes": [
    {
      "name": "Sketchfab_Scene",
      "nodes": [
        0
      ]
    }
  ]
}
